<svg width="160" height="160" viewBox="0 0 160 160" fill="none" xmlns="http://www.w3.org/2000/svg">
<rect x="0.5" y="0.5" width="159" height="159" rx="79.5" fill="#F8F8F8" stroke="#DADCE0"/>
<g clip-path="url(#clip0)">
<path d="M79.0879 77.6582C87.5586 77.6582 94.8936 74.6201 100.887 68.626C106.88 62.6328 109.918 55.2998 109.918 46.8281C109.918 38.3594 106.88 31.0254 100.886 25.0303C94.8916 19.0381 87.5576 16 79.0879 16C70.6162 16 63.2832 19.0381 57.29 25.0312C51.2969 31.0244 48.2578 38.3584 48.2578 46.8281C48.2578 55.2998 51.2969 62.6338 57.291 68.627C63.2852 74.6191 70.6191 77.6582 79.0879 77.6582Z" fill="#5F6368"/>
<path d="M133.032 114.426C132.859 111.932 132.51 109.211 131.995 106.338C131.476 103.443 130.807 100.707 130.006 98.2061C129.179 95.6211 128.054 93.0684 126.663 90.6221C125.22 88.083 123.524 85.8721 121.622 84.0527C119.633 82.1494 117.197 80.6191 114.381 79.5029C111.574 78.3926 108.464 77.8301 105.137 77.8301C103.83 77.8301 102.566 78.3662 100.126 79.9551C98.624 80.9346 96.8672 82.0674 94.9062 83.3203C93.2295 84.3887 90.958 85.3896 88.1523 86.2959C85.415 87.1816 82.6357 87.6309 79.8926 87.6309C77.1494 87.6309 74.3711 87.1816 71.6309 86.2959C68.8281 85.3906 66.5566 84.3896 64.8818 83.3213C62.9395 82.0801 61.1816 80.9473 59.6572 79.9541C57.2197 78.3652 55.9551 77.8291 54.6484 77.8291C51.3203 77.8291 48.2109 78.3926 45.4053 79.5039C42.5908 80.6182 40.1543 82.1484 38.1631 84.0537C36.2617 85.874 34.5654 88.084 33.124 90.6221C31.7344 93.0684 30.6094 95.6201 29.7812 98.207C28.9814 100.708 28.3125 103.443 27.793 106.338C27.2783 109.207 26.9287 111.929 26.7559 114.429C26.5859 116.878 26.5 119.42 26.5 121.987C26.5 128.669 28.624 134.078 32.8125 138.067C36.9492 142.004 42.4229 144.001 49.0791 144.001H110.712C117.368 144.001 122.84 142.005 126.978 138.067C131.167 134.081 133.291 128.671 133.291 121.986C133.29 119.407 133.203 116.863 133.032 114.426Z" fill="#5F6368"/>
</g>
<defs>
<clipPath id="clip0">
<rect width="128" height="128.001" fill="white" transform="translate(16 16)"/>
</clipPath>
</defs>
</svg>
