<svg width="32" height="32" viewBox="0 0 32 32" fill="none" xmlns="http://www.w3.org/2000/svg">
<path d="M16 32C24.8366 32 32 24.8366 32 16C32 7.16344 24.8366 0 16 0C7.16344 0 0 7.16344 0 16C0 24.8366 7.16344 32 16 32Z" fill="#24292E"/>
<path d="M7.32144 15.6533L22.7481 9.70534C23.4641 9.44667 24.0894 9.88 23.8574 10.9627L23.8588 10.9613L21.2321 23.336C21.0374 24.2133 20.5161 24.4267 19.7868 24.0133L15.7868 21.0653L13.8574 22.924C13.6441 23.1373 13.4641 23.3173 13.0508 23.3173L13.3348 19.2467L20.7481 12.5493C21.0708 12.2653 20.6761 12.1053 20.2508 12.388L11.0894 18.156L7.14011 16.924C6.28277 16.652 6.26411 16.0667 7.32144 15.6533Z" fill="white"/>
</svg>
